<svg width="120" height="60" viewBox="0 0 120 60" fill="none" xmlns="http://www.w3.org/2000/svg">
<path d="M34.4813 12.0204H9.75927C6.65618 12.0204 4.14062 14.5359 4.14062 17.639V42.361C4.14062 45.4641 6.65618 47.9797 9.75927 47.9797H34.4813C37.5844 47.9797 40.0999 45.4641 40.0999 42.361V17.639C40.0999 14.5359 37.5844 12.0204 34.4813 12.0204Z" fill="#1A1A1A"/>
<path d="M15.1154 21.322L12.8604 21.3818L13.3274 38.9845L15.5825 38.9246L15.1154 21.322Z" fill="#00FF99"/>
<path d="M31.0294 25.4146L28.7715 25.4745L29.1188 38.5641L31.3767 38.5042L31.0294 25.4146Z" fill="#9933FF"/>
<path d="M31.3763 38.5014L13.3271 38.9803L13.3871 41.2382L31.4362 40.7593L31.3763 38.5014Z" fill="#00CCFF"/>
<path d="M24.0814 18.826L12.8003 19.1254L12.8602 21.3833L24.1413 21.0839L24.0814 18.826Z" fill="#FFFF99"/>
<path d="M24.2609 25.5922L31.0313 25.4124L30.9723 23.1565L28.7136 23.2155L28.6546 20.9596L26.3987 21.0186L26.3397 18.7627L24.0811 18.8217L24.2609 25.5922Z" fill="#FF6666"/>
<path d="M31.0323 25.4127L28.7744 25.4727L28.8343 27.7306L31.0922 27.6706L31.0323 25.4127Z" fill="#4C197F"/>
<path d="M58.8339 28.0677C58.8339 27.6342 58.7551 27.4765 58.2822 27.4897C57.205 27.5291 56.1409 27.5028 55.0637 27.5028C53.934 27.5028 52.8043 27.5159 51.6877 27.5028C51.3987 27.5028 51.2673 27.5685 51.2805 27.8838C51.3067 28.777 51.3067 29.6703 51.2936 30.5636C51.2936 30.8395 51.3724 30.9314 51.6614 30.9183C52.292 30.892 52.9094 30.9051 53.5399 30.9183C54.0522 30.9183 54.8404 30.7475 55.0243 30.9971C55.2871 31.3649 55.1557 32.048 55.1294 32.5866C55.1163 32.7574 54.9587 32.9938 54.7879 33.0858C53.9472 33.5718 53.0145 33.7163 52.0555 33.6769C50.3872 33.6112 49.1392 32.915 48.4693 31.3255C48.0358 30.2746 47.9307 29.1843 48.154 28.0677C48.4693 26.5176 49.218 25.3353 50.8338 24.9281C52.4627 24.5208 53.9997 24.7573 55.3528 25.8082C55.7337 26.1103 55.9176 26.0315 56.1935 25.7162C56.6664 25.1777 57.1787 24.6785 57.6779 24.1662C58.269 23.5619 58.269 23.575 57.6254 23.0101C55.7468 21.3287 53.5005 20.882 51.0834 21.1448C47.7468 21.5126 45.3822 23.1546 44.2393 26.3993C43.6876 27.9494 43.6088 29.5389 43.9372 31.1416C44.4627 33.6112 45.6712 35.5554 48.0883 36.5669C50.2427 37.4733 52.4759 37.6441 54.7485 37.0661C56.1015 36.7246 57.3758 36.2517 58.2953 35.1219C58.65 34.6884 58.8339 34.2155 58.8208 33.6506C58.8208 31.7853 58.8076 29.933 58.8339 28.0677Z" fill="white"/>
<path d="M97.928 29.25C97.928 26.846 97.9148 24.4552 97.9411 22.0512C97.9411 21.6966 97.8886 21.5521 97.4813 21.5652C96.3385 21.5915 95.1956 21.5915 94.0396 21.5652C93.6849 21.5521 93.5929 21.6703 93.5929 22.0118C93.6061 23.6407 93.5667 25.2697 93.5929 26.8986C93.5929 27.3189 93.4616 27.3846 93.0806 27.3846C91.5568 27.3584 90.033 27.3584 88.5223 27.3846C88.1282 27.3978 88.0625 27.2533 88.0756 26.8986C88.0888 25.2565 88.0756 23.6013 88.0888 21.9593C88.0888 21.6703 88.0362 21.5521 87.721 21.5652C86.5255 21.5783 85.317 21.5783 84.1216 21.5652C83.8326 21.5652 83.7144 21.6177 83.7144 21.9461C83.7275 26.8198 83.7275 31.6802 83.7144 36.5538C83.7144 36.856 83.7932 36.9479 84.0953 36.9479C85.2907 36.9348 86.4993 36.9217 87.6947 36.9479C88.0625 36.9611 88.0888 36.8034 88.0888 36.5144C88.0756 34.8855 88.0888 33.2566 88.0756 31.6277C88.0756 31.2993 88.1545 31.2073 88.4829 31.2073C90.0592 31.2205 91.6356 31.2336 93.212 31.2073C93.5929 31.2073 93.6455 31.3387 93.6455 31.6671C93.6323 33.2829 93.6455 34.8855 93.6324 36.5013C93.6324 36.8428 93.698 36.9611 94.0659 36.9479C95.1956 36.9217 96.3253 36.9217 97.4419 36.9479C97.8491 36.9611 97.9411 36.8428 97.9411 36.4488C97.9148 34.0448 97.928 31.6408 97.928 29.25Z" fill="white"/>
<path d="M77.028 21.5914C74.4139 21.5258 71.7997 21.552 69.1987 21.5258C68.7783 21.5258 68.647 21.6308 68.647 22.0644C68.6732 24.4552 68.6601 26.8591 68.6601 29.25C68.6601 31.6671 68.6601 34.0842 68.6601 36.5013C68.6601 36.8165 68.7127 36.9479 69.0673 36.9348C70.289 36.9085 71.4976 36.9085 72.7193 36.9348C73.0608 36.9348 73.1396 36.8297 73.1396 36.5144C73.1265 35.411 73.1396 34.2944 73.1265 33.1909C73.1265 32.8625 73.2184 32.7705 73.5469 32.7705C74.5846 32.7837 75.6224 32.7968 76.6602 32.7443C78.0395 32.6786 79.3532 32.3633 80.4435 31.4569C82.1775 30.025 82.8212 27.4897 82.0461 25.1908C81.3236 23.1415 79.3137 21.644 77.028 21.5914ZM76.0822 29.0923C75.202 29.1055 74.335 29.0792 73.4549 29.1055C73.0871 29.1186 73.0083 28.9872 73.0345 28.6588C73.0608 28.1728 73.0345 27.6999 73.0345 27.2138C73.0345 26.6752 73.0477 26.1366 73.0345 25.6112C73.0214 25.3485 73.1134 25.2696 73.3629 25.2828C74.2956 25.2959 75.2152 25.2565 76.1479 25.2959C77.2776 25.3353 77.987 26.1366 77.9738 27.2532C77.9344 28.3961 77.2513 29.0792 76.0822 29.0923V29.0923Z" fill="white"/>
<path d="M115.491 21.5652C114.099 21.5652 112.706 21.552 111.301 21.5783C111.104 21.5783 110.841 21.7359 110.723 21.9067C109.764 23.378 108.831 24.8493 107.925 26.3468C107.649 26.8066 107.544 26.7147 107.307 26.3206C106.44 24.8493 105.534 23.3911 104.654 21.9199C104.496 21.6571 104.325 21.5652 104.023 21.5652C102.67 21.5783 101.304 21.5652 99.9379 21.5783C99.7934 21.5783 99.6357 21.6177 99.4912 21.644C99.5569 21.7622 99.6094 21.8936 99.6883 22.0118C101.501 24.8361 103.327 27.6605 105.127 30.4979C105.271 30.7213 105.35 31.0234 105.363 31.2861C105.389 33.0201 105.376 34.7541 105.363 36.4881C105.363 36.8166 105.416 36.9611 105.797 36.9479C106.979 36.9216 108.161 36.9216 109.344 36.9479C109.698 36.9611 109.751 36.8297 109.751 36.5144C109.738 35.6211 109.738 34.7279 109.738 33.8346C109.738 32.9807 109.711 32.1137 109.751 31.2599C109.764 30.9709 109.856 30.6556 110.013 30.4323C111.892 27.6079 113.797 24.7967 115.688 21.9855C115.767 21.8804 115.794 21.7491 115.859 21.6177C115.741 21.5783 115.623 21.5652 115.491 21.5652V21.5652Z" fill="white"/>
<path d="M65.6387 21.9066C65.6387 21.5914 65.5468 21.5257 65.2446 21.5257C64.0886 21.5388 62.9195 21.5519 61.7635 21.5257C61.3694 21.5125 61.3037 21.6439 61.3037 21.9986C61.3168 24.3894 61.3168 26.7934 61.3168 29.1842C61.3168 31.6144 61.3168 34.0447 61.3168 36.4749C61.3168 36.8033 61.3563 36.9478 61.7372 36.9347C62.8932 36.9084 64.0624 36.9216 65.2184 36.9347C65.5205 36.9347 65.6519 36.9084 65.6519 36.5406C65.6256 31.6801 65.6256 26.7934 65.6387 21.9066Z" fill="white"/>
</svg>
